<mxfile host="app.diagrams.net" modified="2023-11-02T21:51:06.881Z" agent="Mozilla/5.0 (Windows NT 10.0; Win64; x64; rv:109.0) Gecko/20100101 Firefox/115.0" version="22.0.8" etag="XPKfKzal47UaGfEBLlcO" type="github">
  <diagram name="Page-1" id="ylhegSXh4S1a-XP4pxJQ">
    <mxGraphModel>
      <root>
        <mxCell id="0" />
        <mxCell id="1" parent="0" />
      </root>
    </mxGraphModel>
  </diagram>
</mxfile>
